<?xml version="1.0" encoding="UTF-8" standalone="no"?>
<!DOCTYPE svg PUBLIC "-//W3C//DTD SVG 1.1//EN" "http://www.w3.org/Graphics/SVG/1.1/DTD/svg11.dtd">
<svg width="100%" height="100%" viewBox="0 0 324 41" version="1.1" xmlns="http://www.w3.org/2000/svg" xmlns:xlink="http://www.w3.org/1999/xlink" xml:space="preserve" xmlns:serif="http://www.serif.com/" style="fill-rule:evenodd;clip-rule:evenodd;stroke-linejoin:round;stroke-miterlimit:2;">
    <g transform="matrix(1,0,0,1,-177.583,-287.107)">
        <g transform="matrix(5.03599,0,0,5.03599,-715.376,-625.524)">
            <g transform="matrix(12,0,0,12,182.464,188.804)">
                <path d="M0.667,-0.3C0.698,-0.339 0.711,-0.365 0.708,-0.386C0.706,-0.399 0.701,-0.401 0.69,-0.39C0.622,-0.32 0.491,-0.149 0.42,-0.032C0.433,-0.139 0.452,-0.194 0.471,-0.27C0.486,-0.33 0.48,-0.366 0.447,-0.394C0.439,-0.401 0.43,-0.401 0.426,-0.386C0.407,-0.314 0.376,-0.249 0.32,-0.235C0.32,-0.24 0.321,-0.244 0.321,-0.247C0.326,-0.321 0.296,-0.327 0.273,-0.357C0.252,-0.385 0.236,-0.393 0.206,-0.391C0.146,-0.387 0.084,-0.331 0.046,-0.262C0.002,-0.182 -0.014,-0.096 0.031,-0.037C0.071,0.016 0.118,0.018 0.156,0.006C0.231,-0.017 0.293,-0.121 0.313,-0.206C0.341,-0.209 0.37,-0.22 0.388,-0.24C0.375,-0.175 0.364,-0.112 0.362,-0.072C0.36,-0.02 0.373,-0 0.411,0.019C0.422,0.024 0.427,0.017 0.432,0.009C0.527,-0.142 0.618,-0.237 0.667,-0.3ZM0.256,-0.247C0.237,-0.264 0.228,-0.289 0.232,-0.315C0.236,-0.344 0.258,-0.35 0.262,-0.319C0.264,-0.301 0.263,-0.276 0.256,-0.247ZM0.248,-0.219C0.24,-0.194 0.228,-0.166 0.212,-0.137C0.163,-0.046 0.102,-0.012 0.075,-0.034C0.048,-0.056 0.063,-0.147 0.106,-0.222C0.128,-0.26 0.156,-0.295 0.183,-0.317C0.183,-0.276 0.215,-0.237 0.248,-0.219Z" style="fill-rule:nonzero;"/>
            </g>
            <g transform="matrix(12,0,0,12,190.192,188.804)">
                <path d="M0.667,-0.088C0.679,-0.116 0.677,-0.142 0.672,-0.153C0.668,-0.162 0.661,-0.16 0.657,-0.152C0.625,-0.078 0.574,-0.012 0.532,-0.014C0.502,-0.015 0.49,-0.055 0.507,-0.11C0.524,-0.164 0.575,-0.232 0.622,-0.284C0.652,-0.317 0.627,-0.365 0.607,-0.387C0.6,-0.397 0.591,-0.392 0.579,-0.384C0.54,-0.358 0.505,-0.342 0.47,-0.337C0.495,-0.402 0.505,-0.463 0.474,-0.462C0.432,-0.46 0.334,-0.327 0.411,-0.295C0.356,-0.168 0.246,-0.01 0.136,-0.015C0.085,-0.017 0.06,-0.082 0.092,-0.173C0.162,-0.117 0.229,-0.142 0.276,-0.203C0.316,-0.254 0.326,-0.313 0.309,-0.337C0.293,-0.359 0.275,-0.373 0.25,-0.388C0.2,-0.417 0.098,-0.361 0.035,-0.237C-0.03,-0.109 0.013,0.015 0.14,0.013C0.259,0.011 0.367,-0.115 0.45,-0.289C0.481,-0.289 0.526,-0.299 0.57,-0.327C0.527,-0.279 0.467,-0.205 0.446,-0.138C0.421,-0.057 0.451,0.011 0.527,0.015C0.582,0.018 0.642,-0.028 0.667,-0.088ZM0.101,-0.195C0.104,-0.2 0.106,-0.207 0.109,-0.212C0.155,-0.304 0.237,-0.367 0.259,-0.348C0.272,-0.337 0.251,-0.285 0.219,-0.244C0.189,-0.206 0.15,-0.165 0.101,-0.195Z" style="fill-rule:nonzero;"/>
            </g>
            <g transform="matrix(12,0,0,12,205.636,188.804)">
                <path d="M0.131,-0.386C0.088,-0.309 0.045,-0.225 0.025,-0.176C-0.022,-0.061 0.029,0.013 0.096,0.015C0.157,0.017 0.206,-0.03 0.232,-0.067C0.242,-0.016 0.278,0.013 0.319,0.015C0.4,0.018 0.466,-0.07 0.479,-0.099C0.489,-0.122 0.494,-0.14 0.489,-0.156C0.485,-0.17 0.474,-0.168 0.468,-0.156C0.43,-0.081 0.374,-0.01 0.329,-0.012C0.288,-0.014 0.276,-0.075 0.309,-0.149C0.347,-0.233 0.408,-0.331 0.446,-0.401C0.478,-0.402 0.504,-0.402 0.521,-0.401C0.536,-0.4 0.541,-0.407 0.534,-0.419C0.525,-0.433 0.51,-0.448 0.472,-0.451C0.496,-0.504 0.497,-0.538 0.485,-0.565C0.48,-0.577 0.471,-0.579 0.461,-0.566C0.445,-0.545 0.419,-0.501 0.389,-0.449C0.348,-0.447 0.296,-0.443 0.243,-0.441C0.269,-0.495 0.269,-0.529 0.258,-0.557C0.253,-0.57 0.244,-0.57 0.234,-0.557C0.218,-0.534 0.189,-0.489 0.159,-0.437C0.13,-0.436 0.102,-0.436 0.079,-0.436C0.064,-0.436 0.056,-0.43 0.066,-0.417C0.076,-0.404 0.097,-0.389 0.131,-0.386ZM0.36,-0.397C0.313,-0.311 0.264,-0.215 0.241,-0.161C0.209,-0.087 0.15,-0.01 0.106,-0.012C0.064,-0.014 0.052,-0.076 0.085,-0.149C0.122,-0.231 0.176,-0.321 0.215,-0.388C0.258,-0.39 0.31,-0.394 0.36,-0.397Z" style="fill-rule:nonzero;"/>
            </g>
            <g transform="matrix(12,0,0,12,210.724,188.804)">
                <path d="M0.667,-0.088C0.679,-0.116 0.677,-0.142 0.672,-0.153C0.668,-0.162 0.661,-0.16 0.657,-0.152C0.625,-0.078 0.574,-0.012 0.532,-0.014C0.502,-0.015 0.49,-0.055 0.507,-0.11C0.524,-0.164 0.575,-0.232 0.622,-0.284C0.652,-0.317 0.627,-0.365 0.607,-0.387C0.6,-0.397 0.591,-0.392 0.579,-0.384C0.54,-0.358 0.505,-0.342 0.47,-0.337C0.495,-0.402 0.505,-0.463 0.474,-0.462C0.432,-0.46 0.334,-0.327 0.411,-0.295C0.356,-0.168 0.246,-0.01 0.136,-0.015C0.085,-0.017 0.06,-0.082 0.092,-0.173C0.162,-0.117 0.229,-0.142 0.276,-0.203C0.316,-0.254 0.326,-0.313 0.309,-0.337C0.293,-0.359 0.275,-0.373 0.25,-0.388C0.2,-0.417 0.098,-0.361 0.035,-0.237C-0.03,-0.109 0.013,0.015 0.14,0.013C0.259,0.011 0.367,-0.115 0.45,-0.289C0.481,-0.289 0.526,-0.299 0.57,-0.327C0.527,-0.279 0.467,-0.205 0.446,-0.138C0.421,-0.057 0.451,0.011 0.527,0.015C0.582,0.018 0.642,-0.028 0.667,-0.088ZM0.101,-0.195C0.104,-0.2 0.106,-0.207 0.109,-0.212C0.155,-0.304 0.237,-0.367 0.259,-0.348C0.272,-0.337 0.251,-0.285 0.219,-0.244C0.189,-0.206 0.15,-0.165 0.101,-0.195Z" style="fill-rule:nonzero;"/>
            </g>
            <text x="176.92px" y="188.804px" style="font-family:'SignPainter-HouseScript', 'SignPainter';font-size:12px;">C<tspan x="197.932px 201.808px 218.464px 221.14px 226.12px " y="188.804px 188.804px 188.804px 188.804px 188.804px ">Le.Pr</tspan>ess</text>
        </g>
    </g>
</svg>
